<?xml version="1.0" encoding="utf-8" ?>
<svg xmlns="http://www.w3.org/2000/svg" xmlns:xlink="http://www.w3.org/1999/xlink" width="638" height="688">
	<clipPath id="cl_3">
		<rect x="3.0517578e-05" y="4.5776367e-05" width="638" height="688"/>
	</clipPath>
	<g clip-path="url(#cl_3)">
		<path fill="#4A0DCF" transform="matrix(1.00065 0 0 0.999402 -194.642 -169.021)" d="M644.116 473.203C644.2 473.192 644.284 473.178 644.368 473.17C667.748 471.145 691.04 478.98 709.386 493.464C735.832 514.344 744.457 537.696 748.304 570.103C753.396 550.239 754.255 538.802 749.624 518.545C754.357 525.809 760.66 532.159 765.77 539.216C780.504 559.56 790.505 582.383 796.629 606.692C810.348 661.156 801.665 721.889 778.516 772.597C772.281 786.254 764.306 799.091 756.629 811.969C741.887 812.314 727.061 812.024 712.311 811.93C705.835 811.889 699.29 811.538 692.824 811.888C702.596 796.781 710.103 782.045 714.334 764.396C716.192 756.64 717.402 748.745 719.23 740.978C711.583 756.835 702.583 772.125 690.783 785.28Q689.443 786.778 688.066 788.242Q686.689 789.706 685.276 791.136Q683.864 792.566 682.416 793.961Q680.969 795.355 679.487 796.714Q678.006 798.072 676.492 799.393Q674.977 800.715 673.431 801.999Q671.884 803.282 670.306 804.528Q668.729 805.773 667.121 806.979Q665.513 808.185 663.876 809.351Q662.238 810.517 660.573 811.642Q658.907 812.767 657.215 813.851Q655.522 814.934 653.803 815.976Q652.084 817.018 650.34 818.017Q648.596 819.016 646.828 819.971Q645.06 820.927 643.268 821.839Q641.477 822.751 639.664 823.618Q637.851 824.485 636.017 825.308Q634.183 826.13 632.329 826.907Q630.475 827.684 628.603 828.415Q626.73 829.145 624.841 829.83Q622.951 830.514 621.045 831.152Q619.139 831.79 617.217 832.38Q615.296 832.971 613.361 833.514Q611.426 834.057 609.478 834.552Q607.53 835.047 605.57 835.494Q603.61 835.941 601.64 836.339Q599.67 836.737 597.691 837.087Q595.712 837.437 593.724 837.738Q591.737 838.038 589.743 838.29Q587.749 838.542 585.749 838.744Q583.75 838.946 581.745 839.099Q579.741 839.253 577.734 839.356C528.858 841.773 479.269 824.04 439.727 795.997C427.665 787.443 416.783 777.767 405.858 767.843C398.28 760.285 391.07 752.679 384.315 744.363C378.474 737.172 373.031 728.44 366.05 722.363C360.94 717.915 354.745 714.915 348.999 711.397C331.284 700.549 318.112 684.138 313.3 663.728Q312.934 662.237 312.642 660.731Q312.35 659.224 312.133 657.704Q311.916 656.185 311.775 654.656Q311.634 653.128 311.568 651.595Q311.503 650.061 311.514 648.526Q311.525 646.992 311.612 645.459Q311.699 643.927 311.862 642.401Q312.025 640.874 312.263 639.358Q312.501 637.842 312.814 636.339Q313.128 634.837 313.515 633.352Q313.902 631.866 314.363 630.402Q314.824 628.938 315.356 627.499Q315.889 626.059 316.492 624.648Q317.096 623.237 317.768 621.857Q318.441 620.477 319.181 619.133Q319.921 617.788 320.727 616.482C333.872 595.519 354.536 588.171 377.538 582.934C364.219 606.771 356.706 630.25 363.209 657.633C369.143 682.622 384.116 702.989 406.05 716.293Q407.074 716.905 408.112 717.491Q409.151 718.077 410.203 718.637Q411.256 719.198 412.322 719.732Q413.388 720.266 414.467 720.774Q415.546 721.282 416.638 721.763Q417.729 722.244 418.831 722.698Q419.934 723.152 421.048 723.579Q422.161 724.006 423.285 724.405Q424.409 724.804 425.542 725.176Q426.675 725.547 427.817 725.891Q428.959 726.234 430.109 726.549Q431.259 726.864 432.417 727.151Q433.574 727.438 434.739 727.696Q435.903 727.954 437.073 728.183Q438.243 728.413 439.419 728.613Q440.594 728.814 441.775 728.985Q442.955 729.156 444.139 729.299Q445.323 729.441 446.51 729.554Q447.697 729.667 448.887 729.751Q450.076 729.835 451.267 729.89Q452.459 729.944 453.651 729.969Q454.843 729.995 456.036 729.99Q457.228 729.986 458.42 729.953Q459.612 729.919 460.803 729.856Q461.994 729.793 463.183 729.701Q464.372 729.609 465.558 729.487Q466.745 729.366 467.928 729.215Q469.111 729.064 470.289 728.884Q471.468 728.705 472.642 728.496Q473.817 728.287 474.985 728.049Q476.154 727.812 477.316 727.545Q478.479 727.279 479.634 726.984C509.693 719.506 526.742 702.41 542.259 676.738C572.203 680.283 606.978 698.336 626.453 721.047C612.478 692.341 599.741 681.213 570.582 667.71C559.139 645.431 552.718 621.74 550.219 596.875C547.178 566.621 557.851 531.766 577.087 508.383C594.092 487.711 617.588 475.826 644.116 473.203Z"/>
		<path fill="#4A0DCF" transform="matrix(1.00065 0 0 0.999402 -194.642 -169.021)" d="M618.19 183.192Q621.933 183.013 625.678 183.155Q629.423 183.298 633.141 183.761Q636.86 184.224 640.526 185.004Q644.191 185.784 647.776 186.875Q648.897 187.201 650.01 187.555Q651.122 187.909 652.226 188.291Q653.329 188.673 654.423 189.083Q655.516 189.493 656.599 189.929Q657.682 190.366 658.753 190.83Q659.825 191.294 660.884 191.785Q661.944 192.276 662.991 192.793Q664.037 193.31 665.071 193.854Q666.104 194.397 667.124 194.966Q668.143 195.535 669.148 196.13Q670.153 196.725 671.143 197.344Q672.133 197.964 673.106 198.608Q674.08 199.252 675.037 199.921Q675.995 200.59 676.935 201.282Q677.875 201.974 678.798 202.69Q679.72 203.406 680.624 204.145Q681.528 204.884 682.414 205.645Q683.299 206.406 684.165 207.189Q685.031 207.972 685.877 208.777Q686.723 209.582 687.549 210.408Q688.374 211.234 689.179 212.08Q689.983 212.926 690.766 213.792Q691.549 214.658 692.31 215.544Q693.071 216.429 693.81 217.334Q694.548 218.238 695.264 219.161Q695.98 220.084 696.672 221.024Q697.364 221.964 698.032 222.922Q698.701 223.879 699.345 224.853Q699.989 225.827 700.608 226.817Q701.227 227.807 701.822 228.812Q702.416 229.817 702.985 230.837Q703.554 231.856 704.097 232.89Q704.609 233.882 705.097 234.886Q705.584 235.889 706.047 236.905Q706.51 237.921 706.948 238.947Q707.386 239.974 707.798 241.011Q708.211 242.048 708.598 243.095Q708.985 244.141 709.346 245.197Q709.707 246.253 710.042 247.318Q710.378 248.383 710.687 249.455Q710.996 250.527 711.278 251.607Q711.561 252.687 711.817 253.773Q712.073 254.859 712.302 255.952Q712.532 257.044 712.734 258.141Q712.937 259.239 713.112 260.341Q713.288 261.443 713.436 262.55Q713.585 263.656 713.706 264.765Q713.827 265.875 713.921 266.987Q714.015 268.099 714.082 269.213Q714.149 270.327 714.188 271.442Q714.228 272.558 714.24 273.674Q714.252 274.79 714.236 275.906Q714.221 277.022 714.178 278.137Q714.136 279.252 714.066 280.366Q713.996 281.48 713.898 282.592Q713.801 283.704 713.677 284.813Q713.552 285.922 713.4 287.027Q713.249 288.133 713.07 289.235Q712.891 290.337 712.685 291.433Q712.48 292.53 712.247 293.622Q712.015 294.714 711.755 295.799Q711.496 296.885 711.21 297.964Q710.925 299.042 710.612 300.114Q710.3 301.185 709.962 302.249Q709.613 303.354 709.236 304.451Q708.86 305.547 708.456 306.634Q708.053 307.721 707.623 308.798Q707.193 309.874 706.736 310.94Q706.28 312.006 705.798 313.06Q705.315 314.114 704.807 315.156Q704.298 316.198 703.765 317.227Q703.231 318.256 702.672 319.271Q702.113 320.287 701.529 321.289Q700.945 322.29 700.336 323.277Q699.728 324.264 699.096 325.235Q698.463 326.207 697.807 327.163Q697.151 328.118 696.471 329.058Q695.792 329.997 695.089 330.919Q694.387 331.841 693.662 332.746Q692.937 333.651 692.19 334.537Q691.443 335.424 690.674 336.291Q689.905 337.159 689.115 338.008Q688.326 338.857 687.515 339.685Q686.705 340.514 685.874 341.323Q685.043 342.132 684.193 342.92Q683.343 343.708 682.473 344.475Q681.604 345.242 680.716 345.987Q679.828 346.732 678.922 347.455Q678.015 348.178 677.092 348.879Q676.168 349.579 675.227 350.257Q674.286 350.934 673.329 351.588Q672.372 352.243 671.399 352.873Q670.427 353.504 669.438 354.11Q668.45 354.716 667.448 355.298Q666.445 355.88 665.428 356.436Q664.411 356.993 663.381 357.525C642.92 368.089 617.579 369.91 595.691 362.941C609.686 395.323 615.077 428.654 610.854 463.784Q609.326 464.174 607.808 464.605Q606.29 465.036 604.785 465.507Q603.279 465.978 601.787 466.489Q600.294 467 598.815 467.55Q597.337 468.1 595.873 468.689Q594.41 469.278 592.963 469.906Q591.515 470.533 590.085 471.199Q588.655 471.865 587.243 472.568Q585.831 473.272 584.438 474.013Q583.045 474.753 581.673 475.531Q580.3 476.308 578.948 477.121Q577.597 477.935 576.267 478.784Q574.937 479.633 573.631 480.517Q572.324 481.401 571.041 482.319Q569.759 483.237 568.501 484.189Q567.243 485.141 566.01 486.126Q564.778 487.111 563.573 488.128Q562.367 489.146 561.188 490.195Q560.01 491.243 558.86 492.323Q557.71 493.403 556.589 494.513Q555.468 495.623 554.376 496.762Q553.285 497.901 552.224 499.069Q551.164 500.237 550.134 501.432Q549.105 502.627 548.108 503.85Q547.11 505.072 546.146 506.32Q545.181 507.569 544.25 508.842Q543.319 510.116 542.422 511.413Q541.525 512.711 540.662 514.032Q539.8 515.353 538.973 516.696Q538.146 518.04 537.355 519.405Q536.564 520.769 535.809 522.155Q535.055 523.54 534.337 524.945C529.633 534.005 526.885 543.209 522.712 552.33C521.657 554.634 519.766 558.396 517.169 559.22C515.162 559.857 513.643 558.454 512.622 556.891C510.299 553.335 508.885 549.073 507.206 545.177C502.531 534.335 495.723 524.923 484.258 520.763C474.052 517.059 463.461 518.439 452.919 519.358C421.262 522.115 404.343 514.027 377.544 498.993C384.454 500.744 391.05 502.299 398.224 502.415C429.987 502.931 464.325 483.724 484.591 460.031C489.794 453.948 495.225 440.366 502.796 437.662C506.874 436.205 511.041 437.752 514.745 439.462C519.044 441.854 522.658 444.773 526.146 448.225C523.854 444.154 521.523 440.272 518.267 436.885C511.115 429.447 500.435 424.627 490.082 424.572C479.389 424.515 467.892 429.245 460.249 436.712C465.401 434.85 474.22 431.192 479.695 432.776C480.915 433.129 481.908 433.818 482.442 435.009C483.131 436.546 482.602 438.047 481.91 439.463C480.103 443.163 476.803 446.611 474.029 449.615C460.852 463.889 444.295 476.191 425.954 482.827C407.987 489.328 386.712 489.767 369.205 481.51C349.256 472.102 342.385 454.909 335.28 435.399C339.272 440.911 342.603 446.935 347.983 451.251C354.667 456.614 363.2 460.807 371.995 459.67Q372.527 459.601 373.056 459.506Q373.584 459.41 374.107 459.287Q374.629 459.164 375.145 459.015Q375.661 458.866 376.168 458.69Q376.675 458.515 377.173 458.313Q377.671 458.112 378.157 457.886Q378.644 457.659 379.119 457.408Q379.593 457.157 380.054 456.882Q380.515 456.607 380.962 456.308Q381.408 456.01 381.838 455.689Q382.269 455.368 382.682 455.026Q383.096 454.683 383.491 454.32Q383.887 453.957 384.263 453.574Q384.639 453.191 384.995 452.79Q385.352 452.388 385.687 451.968Q386.022 451.549 386.335 451.113C390.089 445.89 391.071 439.644 389.96 433.399C387.724 420.828 379.467 411.194 369.349 404.014C387.445 401.253 404.305 403.543 421.598 409.431C414.545 405.127 407.732 401.262 399.877 398.619C409.488 377.002 413.371 363.013 408.551 339.49L409.299 337.941C419.365 317.307 436.151 300.171 458.199 292.692C486.831 282.978 513.258 290.997 539.134 303.876Q537.803 301.194 536.718 298.403Q535.633 295.613 534.802 292.736Q533.972 289.859 533.402 286.92Q532.832 283.981 532.528 281.002C530.038 258.031 536.099 234.653 550.746 216.604C568.65 194.543 590.623 185.952 618.19 183.192ZM465.246 409.956C472.506 408.451 477.938 404.717 482.004 398.542C488.964 387.974 490.428 374.177 487.847 361.976C486.121 353.816 481.842 344.726 474.588 340.13C471.403 338.111 466.548 336.512 462.748 337.118C455.76 338.308 450.222 341.402 446.019 347.235C438.905 357.107 437.085 370.994 439.12 382.767C440.661 391.684 444.798 401.159 452.56 406.354C456.552 409.025 460.503 410.045 465.246 409.956Z"/>
		<path fill="#4A0DCF" transform="matrix(1.00065 0 0 0.999402 -194.642 -169.021)" d="M361.817 204.714C379.7 203.684 398.787 210.339 413.227 220.659C435.985 236.925 444.753 256.388 449.171 283.121C435.711 286.888 423.758 292.686 412.803 301.424C387.879 321.304 375.713 347.195 372.067 378.448C369.595 378.279 367.102 378.387 364.626 378.425C342.514 378.281 322.453 372.003 305.716 357.298C288.154 341.868 278.158 319.426 276.787 296.239Q276.726 295.178 276.691 294.117Q276.656 293.055 276.647 291.992Q276.638 290.93 276.656 289.868Q276.673 288.806 276.717 287.744Q276.76 286.683 276.83 285.623Q276.899 284.562 276.995 283.504Q277.091 282.446 277.212 281.391Q277.334 280.336 277.482 279.284Q277.629 278.231 277.803 277.183Q277.976 276.135 278.175 275.092Q278.375 274.048 278.599 273.01Q278.824 271.971 279.074 270.939Q279.325 269.907 279.6 268.881Q279.876 267.855 280.177 266.836Q280.478 265.817 280.803 264.806Q281.129 263.794 281.48 262.791Q281.83 261.789 282.205 260.795Q282.581 259.801 282.98 258.816Q283.379 257.832 283.803 256.858Q284.227 255.883 284.674 254.92Q285.121 253.956 285.592 253.004Q286.063 252.052 286.558 251.111Q287.052 250.171 287.569 249.243Q288.087 248.315 288.626 247.4Q289.166 246.485 289.729 245.584Q290.291 244.682 290.875 243.795Q291.46 242.908 292.066 242.035Q292.672 241.163 293.299 240.305Q293.926 239.448 294.574 238.606Q295.223 237.764 295.891 236.939Q296.56 236.113 297.249 235.304Q297.938 234.496 298.646 233.704C315.022 215.478 337.571 206.038 361.817 204.714Z"/>
		<path fill="#4A0DCF" transform="matrix(1.00065 0 0 0.999402 -194.642 -169.021)" d="M455.699 558.673Q457.574 558.576 459.451 558.571Q461.328 558.566 463.203 558.653Q465.078 558.74 466.947 558.919Q468.816 559.098 470.673 559.368Q472.531 559.638 474.373 559.999Q476.215 560.36 478.037 560.811Q479.86 561.262 481.657 561.802Q483.455 562.342 485.225 562.969Q486.994 563.596 488.73 564.31Q490.467 565.023 492.166 565.821Q493.865 566.618 495.523 567.498Q497.182 568.378 498.795 569.339Q500.408 570.299 501.971 571.337Q503.535 572.375 505.047 573.489Q506.558 574.603 508.013 575.789Q509.467 576.975 510.862 578.232Q512.257 579.488 513.588 580.811Q514.92 582.134 516.185 583.521Q517.45 584.908 518.645 586.356Q519.841 587.803 520.964 589.307Q522.087 590.811 523.135 592.369Q524.183 593.926 525.153 595.533Q526.123 597.14 527.014 598.793Q527.904 600.445 528.712 602.14Q529.521 603.834 530.245 605.566Q530.969 607.298 531.607 609.063Q532.246 610.828 532.797 612.623Q533.348 614.417 533.81 616.237Q534.272 618.056 534.645 619.896Q535.017 621.736 535.299 623.592Q535.581 625.447 535.772 627.315Q535.962 629.182 536.061 631.057Q536.16 632.932 536.166 634.809Q536.173 636.686 536.088 638.561Q536.002 640.436 535.825 642.305Q535.648 644.174 535.379 646.032Q535.11 647.89 534.751 649.732Q534.391 651.575 533.942 653.397Q533.493 655.22 532.955 657.018Q532.416 658.817 531.791 660.586Q531.165 662.356 530.453 664.093Q529.741 665.83 528.945 667.53Q528.149 669.23 527.27 670.889Q526.392 672.548 525.433 674.162Q524.474 675.776 523.437 677.34Q522.4 678.905 521.288 680.417Q520.176 681.93 518.991 683.385Q517.805 684.841 516.55 686.237Q515.295 687.633 513.973 688.966Q512.651 690.298 511.265 691.564Q509.879 692.831 508.433 694.027Q506.987 695.224 505.484 696.349Q503.981 697.473 502.424 698.522Q500.867 699.572 499.261 700.543Q497.655 701.515 496.003 702.407Q494.352 703.298 492.658 704.108Q490.964 704.918 489.233 705.643Q487.502 706.369 485.737 707.009Q483.972 707.649 482.178 708.202Q480.384 708.754 478.565 709.218Q476.746 709.682 474.907 710.056Q473.067 710.43 471.212 710.714Q469.356 710.997 467.489 711.19Q465.622 711.382 463.747 711.482Q461.87 711.583 459.991 711.591Q458.112 711.599 456.235 711.515Q454.357 711.431 452.486 711.255Q450.615 711.079 448.755 710.811Q446.895 710.543 445.05 710.184Q443.206 709.826 441.381 709.377Q439.556 708.928 437.755 708.39Q435.955 707.852 434.183 707.226Q432.411 706.601 430.671 705.889Q428.932 705.177 427.23 704.38Q425.528 703.584 423.867 702.705Q422.206 701.826 420.59 700.866Q418.974 699.907 417.408 698.869Q415.841 697.831 414.327 696.718Q412.813 695.604 411.355 694.418Q409.898 693.231 408.501 691.975Q407.103 690.718 405.769 689.395Q404.435 688.071 403.167 686.684Q401.9 685.296 400.702 683.848Q399.504 682.4 398.379 680.895Q397.254 679.39 396.204 677.831Q395.154 676.273 394.181 674.665Q393.209 673.056 392.317 671.402Q391.425 669.748 390.615 668.052Q389.805 666.357 389.08 664.623Q388.354 662.89 387.714 661.123Q387.075 659.356 386.523 657.559Q385.97 655.763 385.507 653.942Q385.044 652.12 384.671 650.279Q384.297 648.437 384.015 646.579Q383.733 644.721 383.542 642.851Q383.351 640.982 383.252 639.105Q383.153 637.228 383.147 635.349Q383.14 633.47 383.226 631.593Q383.311 629.715 383.489 627.844Q383.667 625.974 383.936 624.114Q384.206 622.254 384.566 620.409Q384.926 618.565 385.377 616.741Q385.827 614.916 386.367 613.116Q386.906 611.316 387.534 609.544Q388.161 607.773 388.874 606.034Q389.588 604.296 390.386 602.594Q391.184 600.893 392.064 599.233Q392.945 597.572 393.906 595.957Q394.867 594.342 395.906 592.776Q396.945 591.211 398.059 589.698Q399.174 588.185 400.362 586.728Q401.549 585.272 402.807 583.875Q404.065 582.479 405.39 581.146Q406.714 579.813 408.103 578.547Q409.492 577.281 410.941 576.084Q412.39 574.888 413.896 573.764Q415.402 572.64 416.962 571.591Q418.521 570.542 420.13 569.571Q421.739 568.601 423.394 567.71Q425.049 566.819 426.745 566.011Q428.442 565.202 430.176 564.478Q431.91 563.754 433.678 563.116Q435.445 562.478 437.242 561.927Q439.039 561.377 440.861 560.915Q442.682 560.454 444.524 560.082Q446.367 559.71 448.225 559.429Q450.083 559.149 451.953 558.959Q453.822 558.77 455.699 558.673ZM465.748 669.949Q466.635 669.8 467.514 669.607Q468.393 669.415 469.262 669.18Q470.13 668.944 470.986 668.666Q471.842 668.389 472.683 668.069Q473.525 667.75 474.349 667.389Q475.174 667.029 475.979 666.628Q476.785 666.228 477.57 665.788Q478.355 665.349 479.118 664.871Q479.881 664.394 480.619 663.88Q481.357 663.365 482.069 662.815Q482.782 662.265 483.466 661.681Q484.15 661.096 484.805 660.479Q485.46 659.862 486.083 659.213Q486.707 658.565 487.298 657.886Q487.889 657.208 488.446 656.501Q489.003 655.794 489.525 655.061Q490.047 654.328 490.532 653.57Q491.017 652.812 491.464 652.031Q491.911 651.251 492.32 650.449Q492.728 649.647 493.096 648.826Q493.465 648.005 493.793 647.167Q494.121 646.329 494.407 645.476Q494.693 644.623 494.937 643.757Q495.181 642.891 495.382 642.014Q495.583 641.137 495.741 640.251Q495.899 639.365 496.013 638.473Q496.128 637.58 496.198 636.683Q496.268 635.786 496.294 634.886Q496.32 633.987 496.302 633.087Q496.284 632.188 496.222 631.29Q496.16 630.392 496.053 629.499Q495.947 628.605 495.797 627.718Q495.647 626.831 495.454 625.952Q495.26 625.073 495.024 624.205Q494.788 623.337 494.509 622.481Q494.231 621.626 493.91 620.785Q493.59 619.944 493.229 619.12Q492.868 618.296 492.466 617.49Q492.065 616.685 491.625 615.9Q491.185 615.115 490.706 614.353Q490.228 613.591 489.713 612.853Q489.198 612.116 488.647 611.404Q488.097 610.692 487.512 610.009Q486.927 609.325 486.309 608.671Q485.691 608.017 485.042 607.394Q484.393 606.771 483.714 606.18Q483.034 605.59 482.327 605.033Q481.62 604.477 480.886 603.956Q480.153 603.435 479.394 602.951Q478.636 602.467 477.855 602.02Q477.074 601.574 476.272 601.166Q475.469 600.758 474.648 600.391Q473.827 600.023 472.989 599.696Q472.15 599.369 471.297 599.084Q470.444 598.798 469.577 598.555Q468.711 598.312 467.834 598.111Q466.957 597.911 466.071 597.754Q465.185 597.597 464.292 597.484Q463.399 597.37 462.502 597.301Q461.605 597.232 460.706 597.206Q459.806 597.181 458.907 597.2Q458.007 597.219 457.109 597.282Q456.212 597.345 455.318 597.452Q454.425 597.559 453.538 597.71Q452.652 597.861 451.774 598.055Q450.897 598.248 450.03 598.485Q449.163 598.722 448.309 599.001Q447.454 599.28 446.615 599.6Q445.775 599.921 444.952 600.282Q444.129 600.643 443.325 601.044Q442.521 601.446 441.737 601.886Q440.954 602.326 440.193 602.804Q439.432 603.282 438.695 603.797Q437.958 604.311 437.248 604.862Q436.537 605.412 435.854 605.997Q435.172 606.581 434.518 607.198Q433.865 607.815 433.243 608.464Q432.621 609.113 432.031 609.791Q431.442 610.469 430.886 611.175Q430.33 611.882 429.81 612.615Q429.29 613.347 428.806 614.105Q428.322 614.862 427.876 615.642Q427.43 616.423 427.023 617.224Q426.615 618.025 426.248 618.845Q425.88 619.665 425.554 620.502Q425.227 621.34 424.941 622.192Q424.656 623.044 424.413 623.909Q424.17 624.774 423.969 625.65Q423.769 626.526 423.611 627.411Q423.454 628.296 423.34 629.188Q423.226 630.079 423.157 630.975Q423.087 631.871 423.061 632.769Q423.035 633.668 423.053 634.566Q423.071 635.465 423.134 636.361Q423.196 637.258 423.302 638.15Q423.408 639.043 423.558 639.929Q423.708 640.815 423.901 641.693Q424.094 642.571 424.33 643.438Q424.566 644.305 424.844 645.16Q425.122 646.014 425.442 646.854Q425.761 647.694 426.122 648.517Q426.482 649.341 426.883 650.145Q427.283 650.95 427.723 651.734Q428.162 652.518 428.639 653.279Q429.117 654.041 429.631 654.778Q430.145 655.515 430.694 656.226Q431.244 656.937 431.828 657.62Q432.411 658.304 433.028 658.957Q433.645 659.611 434.293 660.234Q434.941 660.857 435.618 661.447Q436.296 662.037 437.002 662.594Q437.708 663.15 438.44 663.671Q439.172 664.192 439.929 664.677Q440.686 665.161 441.466 665.608Q442.246 666.055 443.046 666.463Q443.847 666.871 444.667 667.239Q445.487 667.607 446.323 667.935Q447.16 668.262 448.012 668.549Q448.864 668.835 449.729 669.079Q450.594 669.323 451.47 669.524Q452.346 669.726 453.23 669.884Q454.115 670.042 455.007 670.156Q455.898 670.271 456.794 670.342Q457.69 670.413 458.588 670.439Q459.486 670.466 460.385 670.449Q461.283 670.431 462.18 670.37Q463.077 670.309 463.969 670.203Q464.862 670.098 465.748 669.949Z"/>
		<path fill="#4A0DCF" transform="matrix(1.00065 0 0 0.999402 -194.642 -169.021)" d="M457.994 604.682Q458.706 604.643 459.419 604.638Q460.131 604.634 460.844 604.664Q461.556 604.695 462.266 604.76Q462.975 604.826 463.681 604.926Q464.387 605.026 465.087 605.161Q465.787 605.296 466.48 605.464Q467.172 605.633 467.855 605.836Q468.539 606.038 469.212 606.274Q469.884 606.51 470.545 606.779Q471.205 607.047 471.851 607.348Q472.498 607.649 473.128 607.981Q473.759 608.312 474.373 608.675Q474.987 609.038 475.582 609.43Q476.177 609.822 476.753 610.243Q477.328 610.664 477.882 611.112Q478.436 611.561 478.967 612.036Q479.499 612.511 480.006 613.012Q480.513 613.513 480.996 614.038Q481.478 614.562 481.934 615.111Q482.39 615.659 482.818 616.228Q483.247 616.798 483.647 617.388Q484.047 617.978 484.417 618.587Q484.788 619.196 485.128 619.822Q485.469 620.448 485.778 621.091Q486.087 621.733 486.364 622.39Q486.641 623.047 486.886 623.716Q487.131 624.386 487.343 625.066Q487.554 625.747 487.732 626.437Q487.91 627.127 488.054 627.826Q488.198 628.524 488.308 629.228Q488.417 629.932 488.492 630.641Q488.567 631.35 488.607 632.062Q488.647 632.774 488.652 633.487Q488.657 634.199 488.627 634.912Q488.597 635.624 488.533 636.334Q488.468 637.044 488.368 637.75Q488.269 638.455 488.135 639.156Q488.001 639.856 487.832 640.548Q487.664 641.241 487.462 641.925Q487.26 642.608 487.025 643.281Q486.79 643.954 486.522 644.615Q486.254 645.275 485.954 645.922Q485.654 646.569 485.322 647.2Q484.991 647.831 484.629 648.445Q484.267 649.059 483.875 649.655Q483.484 650.25 483.063 650.826Q482.643 651.402 482.195 651.956Q481.747 652.511 481.272 653.042Q480.797 653.574 480.297 654.082Q479.797 654.59 479.272 655.073Q478.748 655.555 478.2 656.012Q477.652 656.468 477.083 656.897Q476.514 657.326 475.924 657.727Q475.334 658.127 474.726 658.498Q474.117 658.87 473.491 659.211Q472.865 659.551 472.223 659.861Q471.581 660.171 470.924 660.449Q470.268 660.727 469.599 660.972Q468.929 661.217 468.249 661.43Q467.568 661.642 466.878 661.82Q466.188 661.999 465.49 662.144Q464.792 662.288 464.088 662.398Q463.383 662.509 462.675 662.584Q461.966 662.659 461.254 662.7Q460.542 662.741 459.828 662.746Q459.114 662.752 458.401 662.723Q457.688 662.693 456.977 662.629Q456.267 662.565 455.56 662.465Q454.853 662.366 454.152 662.232Q453.451 662.099 452.758 661.931Q452.064 661.763 451.379 661.561Q450.695 661.359 450.021 661.123Q449.347 660.888 448.686 660.62Q448.024 660.352 447.377 660.052Q446.73 659.752 446.098 659.42Q445.466 659.089 444.851 658.726Q444.236 658.364 443.639 657.972Q443.043 657.58 442.467 657.159Q441.89 656.739 441.335 656.29Q440.78 655.841 440.248 655.366Q439.715 654.891 439.207 654.39Q438.699 653.889 438.215 653.364Q437.732 652.839 437.275 652.29Q436.819 651.742 436.389 651.172Q435.96 650.602 435.559 650.011Q435.158 649.421 434.787 648.812Q434.416 648.202 434.075 647.575Q433.734 646.948 433.424 646.305Q433.114 645.662 432.836 645.005Q432.558 644.348 432.313 643.677Q432.068 643.007 431.856 642.326Q431.644 641.644 431.465 640.953Q431.287 640.262 431.143 639.563Q430.998 638.864 430.889 638.159Q430.779 637.454 430.704 636.744Q430.629 636.035 430.589 635.322Q430.549 634.609 430.544 633.896Q430.539 633.182 430.569 632.469Q430.599 631.756 430.664 631.046Q430.729 630.335 430.829 629.628Q430.929 628.922 431.063 628.221Q431.198 627.52 431.366 626.826Q431.535 626.133 431.737 625.449Q431.94 624.764 432.176 624.091Q432.412 623.417 432.68 622.756Q432.949 622.095 433.25 621.448Q433.55 620.8 433.883 620.169Q434.215 619.537 434.577 618.923Q434.94 618.308 435.333 617.712Q435.725 617.116 436.147 616.54Q436.568 615.964 437.017 615.409Q437.466 614.855 437.942 614.323Q438.418 613.791 438.919 613.283Q439.42 612.775 439.946 612.292Q440.472 611.81 441.02 611.353Q441.569 610.897 442.139 610.468Q442.71 610.039 443.301 609.639Q443.891 609.239 444.501 608.868Q445.111 608.497 445.738 608.157Q446.365 607.816 447.009 607.507Q447.652 607.198 448.309 606.92Q448.967 606.643 449.637 606.398Q450.308 606.154 450.989 605.942Q451.671 605.731 452.362 605.553Q453.053 605.375 453.752 605.232Q454.451 605.088 455.157 604.979Q455.862 604.87 456.572 604.796Q457.281 604.721 457.994 604.682Z"/>
		<path fill="#4A0DCF" transform="matrix(1.00065 0 0 0.999402 -194.642 -169.021)" d="M295.792 547.653C296.111 547.628 296.431 547.596 296.751 547.577C319.154 546.269 338.591 553.939 355.466 568.39C348.163 570.187 341.257 573.417 334.492 576.639C317.089 574.205 300.243 573.947 284.276 582.298Q283 582.964 281.758 583.693Q280.516 584.422 279.312 585.212Q278.109 586.001 276.946 586.85Q275.783 587.699 274.663 588.604Q273.544 589.51 272.471 590.47Q271.398 591.431 270.375 592.443Q269.351 593.455 268.379 594.518Q267.407 595.58 266.489 596.689Q265.571 597.798 264.71 598.952Q263.848 600.105 263.045 601.3Q262.242 602.495 261.5 603.729Q260.757 604.962 260.077 606.231Q259.397 607.5 258.78 608.801Q258.164 610.103 257.614 611.433Q257.063 612.763 256.579 614.119Q256.096 615.475 255.68 616.854Q255.266 618.221 254.92 619.607Q254.574 620.993 254.298 622.394Q254.021 623.795 253.815 625.209Q253.608 626.622 253.472 628.044Q253.336 629.466 253.27 630.893Q253.205 632.319 253.211 633.748Q253.216 635.176 253.293 636.602Q253.37 638.029 253.517 639.449Q253.664 640.87 253.882 642.282Q254.1 643.693 254.387 645.092Q254.675 646.492 255.032 647.875Q255.388 649.258 255.814 650.621Q256.238 651.985 256.731 653.326Q257.223 654.667 257.781 655.982Q258.339 657.296 258.962 658.582Q259.585 659.867 260.271 661.12C268.965 677.013 282.876 684.422 299.674 689.449L303.033 696.056C306.197 701.522 309.917 706.624 313.359 711.914C291.728 714.982 271.076 710.708 253.399 697.527Q252.564 696.906 251.746 696.265Q250.927 695.624 250.124 694.963Q249.321 694.302 248.534 693.622Q247.748 692.941 246.979 692.242Q246.209 691.542 245.457 690.823Q244.705 690.105 243.971 689.368Q243.237 688.631 242.522 687.877Q241.806 687.122 241.109 686.35Q240.413 685.578 239.735 684.789Q239.058 684 238.4 683.195Q237.742 682.389 237.104 681.568Q236.466 680.746 235.849 679.909Q235.231 679.073 234.634 678.221Q234.038 677.369 233.462 676.503Q232.887 675.636 232.333 674.756Q231.779 673.876 231.247 672.982Q230.715 672.089 230.205 671.182Q229.695 670.276 229.208 669.357Q228.72 668.439 228.255 667.508Q227.791 666.578 227.349 665.636Q226.908 664.695 226.489 663.743Q226.071 662.79 225.676 661.828Q225.282 660.866 224.911 659.894Q224.54 658.923 224.193 657.942Q223.847 656.962 223.524 655.973Q223.201 654.984 222.903 653.988Q222.605 652.992 222.332 651.988Q222.058 650.985 221.81 649.975Q221.561 648.965 221.338 647.95Q221.114 646.934 220.915 645.913Q220.717 644.892 220.543 643.867Q220.37 642.841 220.222 641.812C217.018 619.746 223.321 597.551 236.627 579.809C251.461 560.028 271.824 550.977 295.792 547.653Z"/>
		<path fill="#4A0DCF" transform="matrix(1.00065 0 0 0.999402 -194.642 -169.021)" d="M309.625 591.171C310.782 591.018 311.705 591.014 312.862 591.166C312.649 592.164 312.828 591.929 312.297 592.608C309.167 596.605 306.049 600.628 303.353 604.939C291.955 623.164 288.049 648.867 292.835 669.755C288.788 667.86 285.188 665.369 281.752 662.528C275.959 655.733 271.766 648.495 270.533 639.526Q270.4 638.49 270.319 637.448Q270.237 636.406 270.206 635.362Q270.175 634.317 270.195 633.272Q270.214 632.228 270.285 631.185Q270.356 630.143 270.478 629.105Q270.599 628.067 270.771 627.036Q270.943 626.006 271.165 624.985Q271.387 623.964 271.659 622.955Q271.93 621.946 272.25 620.951Q272.571 619.956 272.939 618.979Q273.308 618.001 273.723 617.042Q274.139 616.083 274.601 615.146Q275.063 614.209 275.57 613.295Q276.077 612.381 276.628 611.494Q277.179 610.606 277.773 609.746Q278.366 608.886 279.001 608.056C286.58 598.086 297.383 592.825 309.625 591.171Z"/>
		<path fill="#4A0DCF" transform="matrix(1.00065 0 0 0.999402 -194.642 -169.021)" d="M351.917 406.051C355.368 406.118 358.262 406.603 361.386 408.141C368.387 411.586 374.187 418.409 376.67 425.8C377.997 429.749 378.521 434.499 376.532 438.329C374.799 441.668 372.181 443.31 368.737 444.509C365.229 444.614 362.472 444.308 359.249 442.799C351.995 439.402 346.085 432.426 343.413 424.913C341.998 420.936 341.128 416.275 343.133 412.336C344.975 408.717 348.202 407.15 351.917 406.051Z"/>
	</g>
</svg>
