<svg width="1073" height="1109" viewBox="0 0 1073 1109" fill="none" xmlns="http://www.w3.org/2000/svg">
<rect width="1073" height="1109" rx="200" fill="black"/>
<path d="M707.683 505.419C707.791 505.405 707.899 505.387 708.007 505.377C738.139 502.77 768.157 512.855 791.801 531.498C825.883 558.374 836.999 588.432 841.957 630.145C848.519 604.577 849.626 589.856 843.658 563.782C849.758 573.132 857.881 581.305 864.467 590.389C883.455 616.575 896.344 645.952 904.237 677.241C921.917 747.345 910.727 825.518 880.893 890.788C872.858 908.366 862.58 924.89 852.686 941.466C833.687 941.91 814.58 941.537 795.57 941.416C787.224 941.363 778.789 940.911 770.456 941.362C783.05 921.916 792.725 902.949 798.177 880.232C800.572 870.248 802.131 860.086 804.487 850.089C794.632 870.499 783.033 890.18 767.826 907.113C766.674 908.398 765.507 909.669 764.324 910.925C763.141 912.182 761.942 913.423 760.728 914.65C759.515 915.877 758.287 917.09 757.043 918.287C755.799 919.483 754.541 920.664 753.268 921.83C751.995 922.995 750.709 924.145 749.408 925.278C748.106 926.413 746.791 927.531 745.463 928.633C744.134 929.734 742.791 930.819 741.436 931.888C740.081 932.956 738.712 934.008 737.331 935.043C735.949 936.078 734.555 937.095 733.149 938.096C731.741 939.097 730.322 940.08 728.892 941.045C727.461 942.01 726.018 942.958 724.564 943.888C723.11 944.818 721.644 945.729 720.167 946.623C718.69 947.518 717.202 948.393 715.704 949.251C714.206 950.108 712.697 950.946 711.178 951.766C709.659 952.586 708.129 953.387 706.59 954.17C705.051 954.953 703.503 955.716 701.945 956.46C700.387 957.204 698.821 957.929 697.245 958.635C695.669 959.341 694.085 960.027 692.492 960.693C690.899 961.36 689.298 962.007 687.69 962.634C686.081 963.261 684.465 963.868 682.842 964.456C681.218 965.043 679.587 965.61 677.949 966.157C676.312 966.705 674.667 967.232 673.016 967.738C671.366 968.245 669.709 968.732 668.047 969.198C666.384 969.664 664.716 970.109 663.042 970.534C661.369 970.959 659.69 971.363 658.006 971.746C656.322 972.13 654.634 972.492 652.941 972.834C651.248 973.175 649.552 973.496 647.852 973.797C646.151 974.097 644.447 974.376 642.739 974.635C641.032 974.892 639.322 975.129 637.608 975.345C635.895 975.561 634.18 975.756 632.461 975.93C630.744 976.103 629.024 976.255 627.301 976.386C625.579 976.519 623.856 976.629 622.132 976.717C559.142 979.828 495.233 957.003 444.273 920.907C428.727 909.897 414.703 897.442 400.623 884.669C390.857 874.94 381.565 865.15 372.859 854.446C365.332 845.19 358.317 833.95 349.32 826.128C342.734 820.403 334.75 816.542 327.345 812.013C304.515 798.05 287.539 776.927 281.337 750.656C281.023 749.376 280.74 748.09 280.489 746.798C280.239 745.505 280.02 744.206 279.833 742.902C279.647 741.598 279.493 740.291 279.372 738.979C279.251 737.667 279.162 736.354 279.105 735.039C279.049 733.722 279.026 732.405 279.036 731.088C279.045 729.772 279.087 728.456 279.162 727.141C279.237 725.826 279.344 724.514 279.484 723.204C279.624 721.894 279.797 720.588 280.001 719.288C280.206 717.987 280.442 716.691 280.711 715.402C280.981 714.113 281.282 712.831 281.615 711.557C281.947 710.282 282.311 709.016 282.707 707.76C283.104 706.503 283.53 705.258 283.987 704.023C284.445 702.788 284.933 701.564 285.451 700.353C285.97 699.143 286.518 697.945 287.096 696.761C287.674 695.577 288.281 694.408 288.917 693.255C289.553 692.101 290.217 690.963 290.909 689.842C307.85 662.86 334.481 653.402 364.125 646.661C346.96 677.343 337.278 707.564 345.659 742.81C353.306 774.975 372.603 801.191 400.871 818.315C401.751 818.841 402.636 819.355 403.528 819.857C404.421 820.36 405.319 820.852 406.223 821.332C407.128 821.814 408.038 822.284 408.954 822.742C409.87 823.2 410.791 823.647 411.718 824.083C412.645 824.519 413.578 824.943 414.516 825.356C415.454 825.769 416.396 826.17 417.342 826.56C418.29 826.949 419.243 827.327 420.2 827.694C421.156 828.06 422.117 828.414 423.083 828.757C424.048 829.099 425.018 829.43 425.991 829.749C426.965 830.068 427.942 830.374 428.923 830.67C429.905 830.964 430.889 831.246 431.877 831.516C432.865 831.787 433.857 832.045 434.852 832.291C435.846 832.538 436.843 832.771 437.844 832.993C438.844 833.214 439.847 833.423 440.852 833.62C441.857 833.817 442.865 834.002 443.876 834.173C444.885 834.346 445.897 834.505 446.912 834.652C447.926 834.799 448.941 834.933 449.959 835.056C450.976 835.178 451.994 835.287 453.014 835.384C454.034 835.481 455.055 835.566 456.078 835.638C457.099 835.71 458.122 835.77 459.145 835.817C460.169 835.863 461.193 835.897 462.217 835.919C463.242 835.941 464.266 835.95 465.291 835.946C466.315 835.942 467.339 835.926 468.364 835.898C469.388 835.869 470.411 835.827 471.435 835.773C472.458 835.719 473.48 835.653 474.502 835.574C475.524 835.495 476.544 835.403 477.563 835.298C478.583 835.194 479.601 835.078 480.617 834.948C481.634 834.819 482.648 834.676 483.66 834.522C484.673 834.368 485.684 834.202 486.692 834.023C487.702 833.843 488.708 833.651 489.712 833.447C490.716 833.244 491.718 833.028 492.716 832.798C493.715 832.57 494.711 832.33 495.703 832.076C534.443 822.451 556.415 800.446 576.413 767.402C615.003 771.965 659.82 795.202 684.919 824.435C666.909 787.485 650.494 773.162 612.914 755.781C598.167 727.105 589.892 696.61 586.671 664.605C582.752 625.663 596.507 580.799 621.298 550.702C643.213 524.093 673.494 508.796 707.683 505.419Z" fill="#FAFAFA"/>
<path d="M674.27 132.128C677.486 131.975 680.703 131.959 683.92 132.081C687.138 132.204 690.344 132.464 693.538 132.861C696.734 133.258 699.906 133.791 703.056 134.461C706.205 135.13 709.319 135.933 712.4 136.869C713.363 137.149 714.322 137.441 715.279 137.744C716.234 138.048 717.186 138.364 718.135 138.692C719.082 139.02 720.026 139.359 720.966 139.711C721.905 140.063 722.84 140.426 723.77 140.8C724.701 141.175 725.626 141.562 726.546 141.96C727.467 142.358 728.383 142.768 729.293 143.189C730.203 143.61 731.109 144.043 732.008 144.487C732.907 144.93 733.8 145.385 734.689 145.852C735.576 146.318 736.458 146.795 737.335 147.284C738.21 147.772 739.08 148.271 739.943 148.782C740.807 149.292 741.664 149.813 742.514 150.344C743.365 150.876 744.208 151.419 745.044 151.971C745.881 152.524 746.71 153.087 747.533 153.661C748.356 154.235 749.171 154.819 749.979 155.413C750.786 156.007 751.587 156.611 752.38 157.226C753.172 157.84 753.956 158.464 754.733 159.098C755.51 159.733 756.279 160.376 757.04 161.029C757.8 161.682 758.552 162.345 759.297 163.016C760.041 163.688 760.776 164.37 761.503 165.06C762.23 165.751 762.948 166.451 763.658 167.16C764.367 167.869 765.067 168.586 765.758 169.312C766.449 170.038 767.131 170.773 767.804 171.516C768.476 172.259 769.14 173.01 769.794 173.771C770.447 174.53 771.092 175.298 771.727 176.075C772.361 176.85 772.985 177.634 773.601 178.426C774.216 179.218 774.821 180.018 775.415 180.824C776.01 181.631 776.594 182.445 777.168 183.267C777.743 184.089 778.307 184.917 778.86 185.753C779.413 186.589 779.956 187.431 780.488 188.281C781.02 189.13 781.541 189.986 782.052 190.849C782.563 191.711 783.062 192.58 783.551 193.455C784.04 194.33 784.518 195.211 784.984 196.098C785.424 196.949 785.854 197.805 786.273 198.667C786.691 199.528 787.1 200.394 787.497 201.266C787.895 202.138 788.282 203.014 788.659 203.894C789.035 204.775 789.4 205.661 789.754 206.551C790.109 207.441 790.453 208.335 790.785 209.233C791.118 210.131 791.439 211.033 791.749 211.939C792.059 212.845 792.358 213.755 792.646 214.669C792.935 215.583 793.212 216.5 793.477 217.42C793.743 218.34 793.997 219.263 794.239 220.19C794.482 221.116 794.714 222.046 794.934 222.978C795.154 223.91 795.362 224.844 795.559 225.782C795.756 226.719 795.942 227.659 796.115 228.6C796.29 229.542 796.452 230.486 796.603 231.432C796.754 232.377 796.893 233.325 797.02 234.275C797.148 235.224 797.264 236.174 797.368 237.126C797.472 238.079 797.564 239.032 797.645 239.986C797.726 240.94 797.795 241.895 797.853 242.851C797.91 243.807 797.956 244.764 797.989 245.72C798.024 246.678 798.046 247.636 798.056 248.593C798.067 249.551 798.065 250.509 798.051 251.466C798.038 252.424 798.013 253.381 797.976 254.338C797.94 255.295 797.892 256.251 797.832 257.207C797.772 258.163 797.7 259.118 797.616 260.072C797.532 261.027 797.437 261.979 797.331 262.931C797.223 263.883 797.104 264.833 796.974 265.781C796.844 266.73 796.702 267.677 796.548 268.623C796.395 269.569 796.229 270.512 796.052 271.452C795.876 272.393 795.688 273.333 795.488 274.27C795.288 275.207 795.077 276.141 794.854 277.072C794.631 278.004 794.397 278.933 794.151 279.859C793.906 280.784 793.65 281.706 793.381 282.626C793.113 283.545 792.833 284.461 792.543 285.374C792.243 286.322 791.931 287.267 791.607 288.208C791.284 289.149 790.949 290.085 790.602 291.018C790.256 291.951 789.898 292.879 789.528 293.804C789.159 294.727 788.778 295.646 788.385 296.561C787.994 297.475 787.591 298.385 787.176 299.29C786.761 300.194 786.336 301.093 785.899 301.987C785.462 302.882 785.014 303.77 784.556 304.653C784.098 305.536 783.628 306.413 783.148 307.284C782.668 308.156 782.176 309.022 781.675 309.882C781.173 310.741 780.66 311.594 780.137 312.44C779.615 313.287 779.082 314.127 778.539 314.961C777.995 315.795 777.442 316.622 776.878 317.442C776.314 318.262 775.74 319.075 775.156 319.882C774.573 320.687 773.979 321.486 773.375 322.277C772.772 323.068 772.159 323.852 771.536 324.629C770.913 325.405 770.281 326.174 769.639 326.934C768.997 327.695 768.346 328.448 767.685 329.192C767.024 329.936 766.355 330.673 765.676 331.402C764.998 332.13 764.311 332.85 763.614 333.56C762.918 334.272 762.213 334.974 761.499 335.669C760.785 336.363 760.063 337.048 759.333 337.724C758.602 338.4 757.863 339.068 757.116 339.726C756.369 340.384 755.615 341.033 754.852 341.672C754.089 342.311 753.318 342.941 752.54 343.561C751.76 344.182 750.974 344.793 750.181 345.394C749.387 345.995 748.586 346.586 747.778 347.168C746.969 347.749 746.154 348.32 745.331 348.881C744.509 349.443 743.68 349.995 742.844 350.535C742.009 351.077 741.167 351.607 740.317 352.127C739.468 352.648 738.613 353.157 737.752 353.657C736.89 354.156 736.023 354.644 735.149 355.121C734.275 355.599 733.396 356.067 732.511 356.523C706.141 370.121 673.483 372.465 645.274 363.494C663.31 405.175 670.258 448.078 664.816 493.296C663.503 493.63 662.194 493.983 660.89 494.352C659.586 494.722 658.287 495.109 656.994 495.513C655.7 495.918 654.412 496.339 653.13 496.777C651.848 497.216 650.571 497.671 649.3 498.143C648.03 498.615 646.766 499.104 645.509 499.609C644.252 500.115 643.002 500.637 641.758 501.176C640.514 501.714 639.278 502.268 638.049 502.84C636.821 503.411 635.6 503.999 634.387 504.602C633.173 505.206 631.968 505.826 630.772 506.462C629.575 507.097 628.387 507.748 627.208 508.416C626.028 509.083 624.858 509.765 623.696 510.462C622.535 511.161 621.384 511.874 620.241 512.603C619.098 513.332 617.966 514.075 616.844 514.834C615.721 515.592 614.608 516.365 613.506 517.153C612.404 517.941 611.313 518.743 610.232 519.56C609.152 520.377 608.081 521.208 607.022 522.053C605.964 522.899 604.917 523.758 603.881 524.63C602.845 525.504 601.821 526.391 600.808 527.291C599.796 528.19 598.795 529.103 597.807 530.03C596.819 530.957 595.844 531.896 594.881 532.849C593.917 533.801 592.967 534.766 592.029 535.744C591.091 536.721 590.167 537.711 589.255 538.713C588.344 539.715 587.447 540.729 586.562 541.755C585.677 542.78 584.807 543.818 583.951 544.867C583.093 545.916 582.25 546.975 581.422 548.046C580.593 549.118 579.778 550.2 578.979 551.293C578.179 552.386 577.393 553.489 576.623 554.602C575.852 555.716 575.096 556.839 574.354 557.973C573.614 559.106 572.888 560.249 572.178 561.402C571.467 562.555 570.772 563.718 570.092 564.889C569.413 566.059 568.749 567.239 568.1 568.429C567.452 569.617 566.82 570.814 566.203 572.02C560.141 583.681 556.599 595.528 551.221 607.269C549.861 610.234 547.424 615.076 544.077 616.137C541.491 616.957 539.533 615.151 538.217 613.139C535.224 608.562 533.401 603.076 531.237 598.062C525.212 584.106 516.438 571.991 501.663 566.637C488.51 561.869 474.86 563.645 461.274 564.828C420.475 568.377 398.671 557.966 364.133 538.615C373.038 540.869 381.539 542.871 390.785 543.02C431.72 543.684 475.974 518.962 502.092 488.465C508.797 480.635 515.797 463.153 525.554 459.672C530.809 457.797 536.18 459.788 540.953 461.989C546.494 465.068 551.151 468.825 555.647 473.269C552.693 468.029 549.689 463.032 545.492 458.672C536.275 449.098 522.511 442.894 509.168 442.823C495.388 442.75 480.571 448.838 470.721 458.45C477.36 456.053 488.726 451.344 495.782 453.383C497.354 453.838 498.634 454.725 499.322 456.258C500.21 458.236 499.529 460.168 498.637 461.991C496.308 466.753 492.055 471.191 488.48 475.058C471.498 493.431 450.16 509.265 426.522 517.807C403.367 526.175 375.948 526.74 353.386 516.112C327.676 504.002 318.821 481.872 309.665 456.76C314.809 463.854 319.102 471.608 326.036 477.164C334.65 484.067 345.647 489.464 356.982 488C357.439 487.941 357.895 487.871 358.349 487.789C358.803 487.707 359.254 487.613 359.704 487.507C360.152 487.402 360.598 487.285 361.041 487.157C361.485 487.029 361.924 486.89 362.36 486.739C362.795 486.589 363.227 486.427 363.655 486.254C364.083 486.081 364.506 485.898 364.923 485.704C365.342 485.509 365.755 485.304 366.163 485.089C366.57 484.873 366.972 484.648 367.368 484.412C367.764 484.176 368.154 483.929 368.538 483.673C368.921 483.417 369.298 483.151 369.667 482.876C370.037 482.601 370.4 482.316 370.755 482.023C371.11 481.728 371.458 481.425 371.797 481.114C372.138 480.802 372.469 480.482 372.792 480.154C373.115 479.825 373.43 479.489 373.736 479.145C374.042 478.8 374.34 478.447 374.628 478.086C374.915 477.727 375.194 477.36 375.463 476.986C380.301 470.263 381.566 462.224 380.134 454.185C377.253 438.004 366.611 425.604 353.572 416.362C376.893 412.808 398.622 415.756 420.908 423.335C411.819 417.795 403.038 412.82 392.915 409.418C405.302 381.593 410.306 363.587 404.094 333.309L405.058 331.315C418.031 304.756 439.664 282.699 468.079 273.073C504.979 260.569 539.037 270.891 572.385 287.468C571.242 285.167 570.204 282.819 569.272 280.424C568.339 278.03 567.516 275.598 566.802 273.129C566.089 270.66 565.488 268.165 564.998 265.643C564.508 263.121 564.133 260.582 563.872 258.026C560.663 228.458 568.474 198.367 587.35 175.135C610.424 146.739 638.743 135.681 674.27 132.128ZM477.161 424.01C486.517 422.073 493.518 417.267 498.758 409.319C507.728 395.716 509.614 377.957 506.288 362.252C504.064 351.749 498.549 340.049 489.2 334.133C485.096 331.534 478.839 329.476 473.941 330.256C464.935 331.788 457.798 335.77 452.382 343.278C443.213 355.985 440.868 373.86 443.49 389.014C445.476 400.491 450.808 412.687 460.811 419.374C465.956 422.812 471.048 424.125 477.161 424.01Z" fill="#FAFAFA"/>
<path d="M343.865 159.831C366.912 158.505 391.51 167.071 410.12 180.355C439.45 201.292 450.75 226.344 456.444 260.753C439.097 265.602 423.692 273.065 409.574 284.312C377.452 309.901 361.773 343.227 357.074 383.454C353.889 383.237 350.676 383.376 347.485 383.425C318.988 383.239 293.134 375.159 271.563 356.231C248.93 336.37 236.047 307.484 234.281 277.638C234.228 276.728 234.187 275.817 234.157 274.907C234.127 273.996 234.108 273.084 234.1 272.172C234.092 271.26 234.096 270.349 234.112 269.438C234.126 268.526 234.153 267.615 234.19 266.704C234.227 265.793 234.276 264.883 234.336 263.974C234.395 263.063 234.466 262.154 234.549 261.246C234.631 260.338 234.724 259.432 234.828 258.526C234.933 257.621 235.049 256.717 235.176 255.814C235.303 254.911 235.441 254.009 235.59 253.11C235.739 252.211 235.898 251.314 236.069 250.419C236.241 249.523 236.423 248.629 236.616 247.739C236.809 246.847 237.013 245.959 237.228 245.073C237.444 244.187 237.67 243.304 237.906 242.424C238.143 241.544 238.391 240.666 238.65 239.792C238.908 238.917 239.177 238.046 239.456 237.179C239.736 236.31 240.027 235.446 240.329 234.585C240.63 233.725 240.941 232.869 241.263 232.016C241.586 231.163 241.919 230.314 242.262 229.469C242.605 228.624 242.958 227.784 243.323 226.949C243.687 226.112 244.061 225.28 244.445 224.454C244.829 223.627 245.224 222.805 245.628 221.988C246.033 221.171 246.448 220.359 246.873 219.551C247.298 218.745 247.732 217.943 248.176 217.147C248.621 216.35 249.075 215.56 249.538 214.775C250.002 213.989 250.476 213.21 250.96 212.437C251.443 211.663 251.935 210.895 252.437 210.134C252.939 209.373 253.451 208.618 253.972 207.869C254.492 207.121 255.022 206.378 255.561 205.642C256.099 204.907 256.647 204.178 257.204 203.455C257.762 202.733 258.327 202.017 258.901 201.31C259.476 200.601 260.059 199.899 260.651 199.205C261.243 198.512 261.843 197.825 262.452 197.146C283.557 173.686 312.617 161.535 343.865 159.831Z" fill="#FAFAFA"/>
<path d="M464.857 615.433C466.468 615.35 468.08 615.306 469.692 615.302C471.305 615.297 472.917 615.333 474.528 615.407C476.139 615.482 477.747 615.596 479.353 615.75C480.959 615.903 482.559 616.096 484.155 616.328C485.751 616.559 487.341 616.83 488.923 617.14C490.506 617.45 492.08 617.798 493.645 618.185C495.212 618.572 496.767 618.997 498.311 619.461C499.855 619.924 501.388 620.425 502.909 620.963C504.429 621.501 505.935 622.076 507.426 622.689C508.919 623.301 510.395 623.949 511.854 624.634C513.314 625.318 514.756 626.037 516.181 626.792C517.606 627.547 519.012 628.337 520.398 629.162C521.783 629.986 523.148 630.843 524.491 631.734C525.834 632.624 527.156 633.548 528.455 634.504C529.753 635.46 531.027 636.446 532.277 637.464C533.527 638.482 534.751 639.53 535.949 640.609C537.148 641.686 538.319 642.793 539.462 643.928C540.607 645.063 541.722 646.226 542.809 647.416C543.896 648.607 544.953 649.823 545.98 651.066C547.007 652.307 548.003 653.573 548.968 654.864C549.933 656.155 550.866 657.468 551.766 658.805C552.667 660.141 553.534 661.499 554.367 662.878C555.2 664.257 556 665.656 556.765 667.074C557.53 668.492 558.259 669.928 558.954 671.382C559.649 672.836 560.307 674.306 560.929 675.792C561.551 677.278 562.136 678.779 562.685 680.293C563.234 681.808 563.745 683.335 564.218 684.875C564.692 686.415 565.127 687.965 565.524 689.527C565.921 691.088 566.279 692.658 566.6 694.237C566.92 695.816 567.2 697.402 567.443 698.994C567.685 700.586 567.888 702.183 568.052 703.786C568.216 705.388 568.34 706.994 568.425 708.603C568.51 710.212 568.555 711.822 568.56 713.432C568.566 715.043 568.533 716.653 568.46 718.262C568.386 719.871 568.273 721.477 568.121 723.081C567.969 724.685 567.777 726.284 567.546 727.878C567.315 729.473 567.045 731.06 566.736 732.641C566.427 734.222 566.08 735.795 565.694 737.358C565.308 738.922 564.884 740.476 564.422 742.019C563.959 743.563 563.459 745.094 562.922 746.612C562.384 748.13 561.809 749.635 561.197 751.126C560.586 752.616 559.938 754.091 559.254 755.55C558.57 757.008 557.85 758.45 557.095 759.873C556.341 761.297 555.552 762.701 554.728 764.086C553.904 765.471 553.046 766.835 552.155 768.177C551.264 769.52 550.341 770.84 549.386 772.137C548.43 773.436 547.444 774.709 546.426 775.958C545.407 777.207 544.358 778.431 543.28 779.629C542.201 780.826 541.094 781.997 539.959 783.141C538.823 784.284 537.659 785.399 536.469 786.485C535.278 787.572 534.061 788.629 532.819 789.655C531.576 790.683 530.309 791.679 529.018 792.644C527.727 793.609 526.412 794.541 525.075 795.441C523.737 796.342 522.378 797.209 520.998 798.043C519.618 798.877 518.219 799.676 516.799 800.442C515.381 801.206 513.944 801.936 512.488 802.631C511.033 803.326 509.562 803.985 508.074 804.607C506.587 805.23 505.085 805.816 503.569 806.365C502.052 806.915 500.523 807.427 498.982 807.901C497.441 808.375 495.889 808.811 494.326 809.209C492.763 809.607 491.192 809.967 489.611 810.287C488.031 810.608 486.443 810.891 484.849 811.134C483.255 811.377 481.655 811.581 480.051 811.747C478.447 811.912 476.84 812.037 475.229 812.123C473.616 812.21 472.003 812.256 470.388 812.263C468.774 812.27 467.16 812.237 465.548 812.165C463.934 812.093 462.323 811.982 460.716 811.831C459.108 811.68 457.506 811.489 455.908 811.259C454.31 811.029 452.718 810.76 451.133 810.452C449.548 810.145 447.972 809.799 446.404 809.413C444.836 809.028 443.279 808.605 441.731 808.143C440.185 807.681 438.65 807.182 437.128 806.645C435.605 806.108 434.096 805.535 432.601 804.924C431.107 804.313 429.629 803.665 428.167 802.981C426.705 802.298 425.26 801.58 423.833 800.825C422.406 800.071 420.998 799.282 419.609 798.458C418.221 797.635 416.854 796.779 415.509 795.888C414.162 794.997 412.839 794.074 411.538 793.119C410.237 792.163 408.96 791.177 407.708 790.159C406.456 789.14 405.23 788.092 404.03 787.014C402.828 785.936 401.655 784.829 400.509 783.693C399.362 782.557 398.245 781.394 397.155 780.204C396.067 779.013 395.008 777.796 393.978 776.554C392.949 775.311 391.951 774.044 390.985 772.753C390.018 771.461 389.084 770.146 388.182 768.809C387.279 767.472 386.41 766.113 385.574 764.733C384.739 763.353 383.938 761.953 383.172 760.533C382.406 759.114 381.675 757.677 380.979 756.221C380.283 754.767 379.623 753.296 379 751.808C378.377 750.321 377.79 748.819 377.24 747.303C376.691 745.786 376.179 744.257 375.705 742.715C375.23 741.174 374.793 739.622 374.396 738.06C373.998 736.496 373.639 734.925 373.318 733.345C372.997 731.764 372.715 730.177 372.473 728.582C372.23 726.988 372.027 725.388 371.863 723.784C371.699 722.18 371.574 720.573 371.489 718.962C371.404 717.351 371.359 715.74 371.354 714.127C371.348 712.515 371.382 710.904 371.456 709.293C371.529 707.681 371.642 706.073 371.795 704.467C371.948 702.863 372.14 701.262 372.371 699.666C372.603 698.07 372.874 696.48 373.183 694.897C373.492 693.315 373.841 691.741 374.228 690.176C374.615 688.61 375.04 687.055 375.504 685.51C375.967 683.965 376.468 682.433 377.008 680.912C377.547 679.393 378.122 677.887 378.735 676.394C379.348 674.903 379.998 673.427 380.683 671.966C381.369 670.507 382.09 669.065 382.846 667.64C383.603 666.215 384.394 664.809 385.22 663.424C386.046 662.038 386.905 660.673 387.797 659.329C388.69 657.986 389.615 656.666 390.572 655.367C391.53 654.069 392.52 652.795 393.54 651.544C394.56 650.295 395.61 649.071 396.691 647.872C397.772 646.674 398.882 645.503 400.02 644.359C401.158 643.216 402.323 642.1 403.517 641.014C404.71 639.928 405.929 638.871 407.174 637.844C408.419 636.818 409.688 635.822 410.982 634.858C412.276 633.893 413.593 632.961 414.934 632.061C416.273 631.16 417.634 630.294 419.017 629.461C420.399 628.628 421.801 627.83 423.223 627.065C424.645 626.301 426.085 625.572 427.542 624.878C429 624.184 430.474 623.526 431.964 622.905C433.453 622.284 434.958 621.699 436.477 621.152C437.995 620.605 439.526 620.094 441.07 619.622C442.614 619.15 444.169 618.715 445.734 618.319C447.299 617.923 448.872 617.566 450.455 617.247C452.038 616.927 453.628 616.647 455.225 616.406C456.821 616.166 458.422 615.964 460.029 615.801C461.635 615.639 463.244 615.516 464.857 615.433ZM477.808 758.663C478.57 758.535 479.328 758.389 480.084 758.223C480.839 758.058 481.59 757.875 482.336 757.673C483.082 757.471 483.823 757.25 484.558 757.012C485.294 756.774 486.023 756.518 486.745 756.243C487.469 755.97 488.184 755.678 488.892 755.368C489.601 755.059 490.301 754.733 490.993 754.389C491.686 754.045 492.369 753.685 493.043 753.307C493.718 752.931 494.383 752.537 495.038 752.127C495.694 751.718 496.339 751.293 496.973 750.851C497.607 750.41 498.23 749.953 498.842 749.481C499.454 749.009 500.054 748.522 500.642 748.021C501.23 747.519 501.805 747.003 502.368 746.474C502.93 745.944 503.479 745.401 504.015 744.844C504.551 744.288 505.073 743.719 505.581 743.136C506.088 742.554 506.582 741.96 507.06 741.353C507.539 740.747 508.002 740.129 508.451 739.5C508.899 738.871 509.332 738.231 509.748 737.581C510.165 736.93 510.566 736.27 510.95 735.6C511.334 734.931 511.701 734.252 512.053 733.564C512.403 732.875 512.737 732.179 513.053 731.475C513.37 730.77 513.669 730.058 513.951 729.339C514.233 728.62 514.497 727.895 514.742 727.163C514.988 726.431 515.216 725.693 515.426 724.95C515.635 724.207 515.826 723.459 515.999 722.706C516.172 721.954 516.326 721.197 516.462 720.437C516.597 719.677 516.714 718.914 516.812 718.149C516.911 717.382 516.99 716.614 517.051 715.845C517.111 715.075 517.152 714.304 517.174 713.531C517.197 712.76 517.2 711.988 517.185 711.216C517.169 710.444 517.135 709.673 517.082 708.903C517.028 708.132 516.956 707.364 516.864 706.598C516.773 705.83 516.663 705.066 516.534 704.305C516.405 703.544 516.258 702.786 516.092 702.032C515.925 701.278 515.74 700.528 515.538 699.783C515.335 699.039 515.114 698.299 514.874 697.564C514.635 696.831 514.378 696.103 514.102 695.381C513.827 694.66 513.534 693.945 513.224 693.238C512.914 692.531 512.586 691.832 512.241 691.14C511.896 690.449 511.535 689.767 511.157 689.093C510.779 688.42 510.384 687.756 509.973 687.102C509.562 686.448 509.135 685.805 508.693 685.172C508.251 684.539 507.793 683.917 507.319 683.306C506.847 682.695 506.359 682.097 505.856 681.511C505.354 680.924 504.837 680.35 504.306 679.789C503.775 679.227 503.231 678.679 502.673 678.145C502.116 677.61 501.545 677.089 500.962 676.582C500.377 676.076 499.782 675.584 499.174 675.106C498.567 674.629 497.948 674.167 497.317 673.72C496.687 673.273 496.046 672.841 495.394 672.426C494.743 672.011 494.082 671.611 493.411 671.228C492.74 670.845 492.06 670.479 491.371 670.128C490.681 669.778 489.983 669.446 489.278 669.131C488.572 668.815 487.86 668.517 487.14 668.236C486.419 667.956 485.692 667.693 484.959 667.449C484.226 667.203 483.487 666.976 482.742 666.768C481.998 666.559 481.25 666.369 480.496 666.196C479.743 666.025 478.985 665.871 478.224 665.737C477.463 665.602 476.698 665.486 475.931 665.389C475.164 665.291 474.395 665.213 473.624 665.154C472.854 665.094 472.082 665.054 471.31 665.031C470.536 665.01 469.764 665.007 468.991 665.024C468.218 665.04 467.446 665.075 466.674 665.129C465.903 665.183 465.134 665.256 464.366 665.348C463.599 665.44 462.834 665.55 462.072 665.68C461.311 665.81 460.553 665.958 459.798 666.124C459.045 666.29 458.296 666.474 457.551 666.678C456.806 666.881 456.067 667.102 455.333 667.342C454.598 667.581 453.87 667.838 453.15 668.113C452.428 668.388 451.713 668.681 451.006 668.991C450.299 669.3 449.6 669.627 448.91 669.971C448.219 670.316 447.537 670.678 446.863 671.055C446.19 671.433 445.527 671.827 444.873 672.237C444.219 672.647 443.576 673.073 442.943 673.515C442.309 673.956 441.688 674.413 441.078 674.886C440.467 675.358 439.868 675.845 439.281 676.347C438.695 676.848 438.121 677.363 437.559 677.893C436.998 678.422 436.451 678.965 435.916 679.522C435.382 680.079 434.861 680.648 434.354 681.23C433.848 681.812 433.356 682.406 432.879 683.012C432.401 683.618 431.939 684.236 431.492 684.865C431.045 685.493 430.614 686.133 430.198 686.783C429.782 687.433 429.383 688.092 428.999 688.761C428.616 689.432 428.25 690.11 427.9 690.798C427.55 691.485 427.217 692.18 426.901 692.884C426.585 693.588 426.287 694.299 426.007 695.017C425.726 695.736 425.463 696.461 425.217 697.192C424.972 697.923 424.745 698.66 424.536 699.402C424.328 700.145 424.137 700.892 423.964 701.643C423.792 702.395 423.639 703.151 423.503 703.91C423.368 704.669 423.251 705.432 423.154 706.197C423.056 706.962 422.977 707.729 422.918 708.497C422.858 709.266 422.816 710.036 422.794 710.807C422.772 711.578 422.768 712.349 422.784 713.12C422.799 713.891 422.834 714.661 422.888 715.43C422.941 716.2 423.013 716.967 423.105 717.733C423.196 718.499 423.306 719.262 423.435 720.023C423.563 720.783 423.711 721.54 423.877 722.293C424.042 723.047 424.227 723.795 424.429 724.539C424.632 725.283 424.853 726.022 425.092 726.756C425.331 727.489 425.588 728.215 425.863 728.936C426.137 729.657 426.429 730.371 426.739 731.077C427.048 731.784 427.375 732.482 427.72 733.172C428.063 733.863 428.424 734.545 428.802 735.218C429.179 735.89 429.573 736.553 429.983 737.206C430.393 737.86 430.82 738.503 431.261 739.136C431.703 739.768 432.159 740.389 432.631 741C433.104 741.61 433.591 742.208 434.093 742.794C434.594 743.381 435.109 743.954 435.639 744.515C436.169 745.076 436.713 745.624 437.269 746.158C437.826 746.693 438.395 747.214 438.977 747.72C439.56 748.226 440.154 748.718 440.761 749.196C441.367 749.673 441.985 750.135 442.614 750.582C443.243 751.03 443.882 751.461 444.533 751.877C445.183 752.293 445.844 752.692 446.514 753.076C447.184 753.459 447.863 753.826 448.55 754.176C449.238 754.526 449.935 754.859 450.639 755.175C451.344 755.491 452.055 755.789 452.773 756.071C453.492 756.351 454.218 756.615 454.95 756.861C455.682 757.107 456.42 757.334 457.163 757.543C457.906 757.753 458.654 757.944 459.407 758.116C460.159 758.29 460.915 758.444 461.675 758.58C462.435 758.715 463.199 758.832 463.965 758.93C464.73 759.028 465.498 759.108 466.268 759.169C467.038 759.23 467.809 759.272 468.58 759.294C469.352 759.317 470.124 759.321 470.896 759.307C471.668 759.291 472.439 759.257 473.209 759.205C473.98 759.153 474.749 759.081 475.515 758.99C476.282 758.9 477.046 758.791 477.808 758.663Z" fill="#FAFAFA"/>
<path d="M467.814 674.654C468.426 674.621 469.038 674.602 469.651 674.597C470.263 674.594 470.875 674.605 471.487 674.631C472.099 674.657 472.71 674.699 473.32 674.754C473.929 674.811 474.537 674.882 475.144 674.968C475.75 675.054 476.354 675.155 476.956 675.271C477.557 675.386 478.156 675.516 478.751 675.661C479.346 675.806 479.936 675.965 480.523 676.139C481.111 676.313 481.694 676.501 482.272 676.703C482.849 676.906 483.422 677.122 483.99 677.353C484.557 677.583 485.118 677.827 485.673 678.086C486.229 678.344 486.777 678.616 487.319 678.9C487.861 679.184 488.396 679.482 488.923 679.794C489.451 680.105 489.97 680.429 490.481 680.765C490.993 681.102 491.496 681.451 491.99 681.812C492.485 682.173 492.97 682.546 493.446 682.93C493.921 683.316 494.388 683.712 494.844 684.12C495.301 684.527 495.747 684.946 496.183 685.376C496.618 685.806 497.044 686.246 497.459 686.697C497.873 687.146 498.276 687.607 498.668 688.078C499.059 688.548 499.439 689.027 499.807 689.516C500.175 690.005 500.532 690.502 500.875 691.009C501.219 691.515 501.55 692.029 501.868 692.552C502.186 693.075 502.492 693.605 502.784 694.142C503.077 694.679 503.356 695.223 503.622 695.775C503.887 696.326 504.139 696.883 504.377 697.447C504.615 698.011 504.839 698.58 505.05 699.154C505.26 699.729 505.456 700.308 505.639 700.892C505.82 701.476 505.987 702.064 506.14 702.656C506.293 703.248 506.431 703.844 506.555 704.444C506.679 705.043 506.788 705.645 506.882 706.249C506.976 706.853 507.055 707.459 507.119 708.067C507.184 708.676 507.233 709.286 507.268 709.897C507.302 710.508 507.321 711.119 507.326 711.731C507.33 712.342 507.319 712.953 507.293 713.565C507.268 714.176 507.227 714.786 507.172 715.395C507.116 716.005 507.045 716.612 506.96 717.218C506.875 717.823 506.774 718.426 506.659 719.028C506.544 719.628 506.414 720.226 506.269 720.819C506.124 721.414 505.965 722.005 505.792 722.592C505.618 723.178 505.431 723.76 505.229 724.337C505.027 724.915 504.811 725.487 504.58 726.054C504.35 726.621 504.106 727.181 503.848 727.737C503.591 728.292 503.319 728.84 503.034 729.382C502.75 729.923 502.452 730.457 502.141 730.984C501.83 731.511 501.506 732.03 501.169 732.542C500.833 733.052 500.484 733.555 500.123 734.049C499.762 734.543 499.389 735.028 499.004 735.503C498.619 735.98 498.223 736.445 497.814 736.901C497.406 737.358 496.987 737.804 496.558 738.24C496.128 738.676 495.688 739.101 495.237 739.515C494.787 739.929 494.326 740.332 493.855 740.724C493.385 741.115 492.905 741.495 492.416 741.863C491.927 742.231 491.429 742.587 490.922 742.931C490.415 743.275 489.901 743.606 489.378 743.924C488.855 744.243 488.324 744.549 487.787 744.842C487.249 745.133 486.704 745.412 486.152 745.678C485.601 745.944 485.043 746.197 484.478 746.435C483.915 746.674 483.345 746.898 482.771 747.108C482.195 747.319 481.615 747.515 481.031 747.698C480.446 747.88 479.857 748.047 479.264 748.2C478.671 748.353 478.075 748.492 477.475 748.617C476.875 748.74 476.273 748.849 475.668 748.944C475.063 749.039 474.456 749.119 473.847 749.183C473.238 749.248 472.628 749.297 472.016 749.333C471.404 749.368 470.792 749.387 470.178 749.392C469.565 749.397 468.952 749.387 468.339 749.362C467.726 749.336 467.115 749.296 466.504 749.241C465.894 749.186 465.285 749.116 464.678 749.03C464.07 748.945 463.465 748.845 462.863 748.73C462.261 748.616 461.662 748.487 461.066 748.343C460.47 748.199 459.878 748.04 459.289 747.866C458.702 747.693 458.118 747.505 457.539 747.303C456.96 747.101 456.387 746.885 455.819 746.655C455.25 746.425 454.688 746.182 454.132 745.924C453.576 745.667 453.026 745.396 452.483 745.111C451.94 744.827 451.405 744.529 450.876 744.217C450.348 743.907 449.827 743.583 449.314 743.247C448.802 742.91 448.299 742.562 447.804 742.2C447.308 741.84 446.822 741.467 446.345 741.082C445.868 740.697 445.401 740.3 444.944 739.893C444.486 739.485 444.039 739.066 443.602 738.636C443.166 738.206 442.74 737.766 442.324 737.316C441.909 736.865 441.505 736.404 441.112 735.933C440.721 735.463 440.34 734.983 439.971 734.494C439.602 734.005 439.245 733.507 438.901 733C438.556 732.493 438.225 731.979 437.906 731.456C437.587 730.933 437.281 730.402 436.988 729.864C436.695 729.326 436.416 728.781 436.149 728.23C435.883 727.678 435.631 727.12 435.392 726.556C435.153 725.992 434.928 725.423 434.718 724.847C434.507 724.272 434.311 723.692 434.129 723.108C433.947 722.523 433.779 721.934 433.625 721.341C433.472 720.748 433.334 720.151 433.21 719.551C433.085 718.952 432.976 718.349 432.882 717.744C432.788 717.139 432.708 716.532 432.644 715.923C432.58 715.315 432.53 714.705 432.496 714.093C432.461 713.481 432.442 712.869 432.438 712.257C432.434 711.644 432.444 711.032 432.47 710.42C432.496 709.809 432.537 709.198 432.592 708.589C432.648 707.979 432.719 707.37 432.805 706.764C432.891 706.158 432.992 705.554 433.107 704.953C433.223 704.351 433.353 703.752 433.497 703.157C433.642 702.562 433.802 701.971 433.975 701.384C434.15 700.797 434.338 700.214 434.541 699.637C434.744 699.058 434.96 698.485 435.191 697.918C435.422 697.351 435.667 696.79 435.925 696.235C436.183 695.679 436.455 695.13 436.741 694.588C437.026 694.046 437.324 693.511 437.635 692.984C437.947 692.457 438.272 691.937 438.61 691.426C438.947 690.914 439.296 690.411 439.659 689.917C440.02 689.423 440.394 688.938 440.78 688.461C441.166 687.986 441.563 687.52 441.972 687.064C442.381 686.607 442.801 686.161 443.231 685.725C443.662 685.289 444.103 684.864 444.555 684.449C445.007 684.036 445.468 683.633 445.939 683.241C446.411 682.849 446.891 682.47 447.381 682.102C447.872 681.733 448.371 681.378 448.879 681.034C449.386 680.691 449.901 680.36 450.425 680.042C450.949 679.724 451.481 679.419 452.019 679.127C452.558 678.834 453.104 678.555 453.657 678.29C454.21 678.025 454.768 677.773 455.333 677.535C455.898 677.297 456.469 677.073 457.044 676.863C457.621 676.653 458.202 676.458 458.787 676.276C459.373 676.095 459.962 675.928 460.556 675.775C461.15 675.622 461.747 675.485 462.348 675.362C462.948 675.238 463.552 675.13 464.158 675.036C464.764 674.943 465.372 674.864 465.982 674.801C466.591 674.736 467.202 674.688 467.814 674.654Z" fill="#FAFAFA"/>
<path d="M258.774 601.248C259.185 601.216 259.597 601.175 260.01 601.151C288.882 599.467 313.932 609.34 335.68 627.94C326.268 630.253 317.368 634.411 308.649 638.558C286.221 635.425 264.51 635.093 243.932 645.842C242.836 646.414 241.754 647.012 240.687 647.638C239.62 648.263 238.569 648.915 237.535 649.593C236.501 650.27 235.485 650.973 234.486 651.701C233.486 652.43 232.506 653.182 231.543 653.959C230.582 654.736 229.64 655.537 228.718 656.361C227.796 657.185 226.896 658.032 226.017 658.9C225.137 659.769 224.28 660.659 223.445 661.571C222.61 662.483 221.798 663.414 221.009 664.366C220.22 665.317 219.456 666.288 218.716 667.279C217.976 668.268 217.26 669.275 216.57 670.301C215.88 671.326 215.217 672.368 214.579 673.427C213.941 674.485 213.33 675.559 212.745 676.648C212.161 677.737 211.604 678.839 211.074 679.956C210.545 681.073 210.044 682.202 209.571 683.344C209.098 684.485 208.653 685.637 208.237 686.801C207.822 687.965 207.436 689.138 207.079 690.321C206.723 691.494 206.396 692.676 206.099 693.865C205.802 695.054 205.535 696.25 205.298 697.452C205.06 698.654 204.852 699.862 204.675 701.076C204.497 702.288 204.35 703.504 204.233 704.725C204.116 705.945 204.029 707.167 203.973 708.392C203.917 709.615 203.891 710.84 203.897 712.067C203.901 713.292 203.936 714.516 204.002 715.74C204.068 716.965 204.165 718.186 204.291 719.405C204.417 720.624 204.574 721.84 204.761 723.051C204.949 724.262 205.166 725.468 205.412 726.668C205.66 727.869 205.937 729.064 206.243 730.25C206.549 731.437 206.885 732.615 207.251 733.785C207.616 734.955 208.01 736.116 208.433 737.267C208.856 738.417 209.307 739.557 209.786 740.685C210.266 741.813 210.773 742.928 211.308 744.032C211.844 745.135 212.406 746.224 212.995 747.299C224.2 767.756 242.128 777.292 263.777 783.763L268.106 792.267C272.183 799.303 276.978 805.87 281.413 812.679C253.536 816.628 226.92 811.127 204.139 794.16C203.422 793.628 202.711 793.086 202.009 792.536C201.305 791.986 200.608 791.427 199.918 790.86C199.228 790.293 198.545 789.718 197.869 789.134C197.194 788.55 196.526 787.958 195.865 787.358C195.203 786.757 194.55 786.148 193.904 785.531C193.257 784.915 192.619 784.291 191.988 783.658C191.358 783.026 190.735 782.386 190.121 781.739C189.506 781.092 188.899 780.436 188.3 779.774C187.702 779.111 187.112 778.442 186.529 777.765C185.948 777.088 185.374 776.404 184.809 775.713C184.243 775.021 183.687 774.323 183.138 773.619C182.59 772.913 182.051 772.201 181.521 771.483C180.99 770.766 180.468 770.042 179.955 769.311C179.443 768.579 178.94 767.842 178.445 767.099C177.951 766.355 177.466 765.606 176.99 764.85C176.514 764.095 176.047 763.334 175.59 762.567C175.133 761.801 174.685 761.029 174.247 760.25C173.809 759.473 173.381 758.69 172.962 757.901C172.543 757.113 172.134 756.32 171.734 755.521C171.335 754.723 170.946 753.92 170.567 753.112C170.188 752.304 169.818 751.492 169.458 750.675C169.099 749.857 168.75 749.036 168.41 748.21C168.072 747.385 167.743 746.555 167.424 745.721C167.106 744.887 166.797 744.05 166.499 743.208C166.202 742.367 165.914 741.522 165.637 740.674C165.359 739.825 165.093 738.973 164.837 738.119C164.581 737.264 164.335 736.406 164.101 735.544C163.865 734.684 163.641 733.82 163.428 732.953C163.214 732.087 163.011 731.218 162.82 730.347C162.627 729.475 162.446 728.601 162.275 727.725C162.104 726.849 161.945 725.971 161.795 725.091C161.647 724.211 161.509 723.329 161.381 722.446C157.252 694.044 165.375 665.475 182.524 642.638C201.641 617.177 227.884 605.527 258.774 601.248Z" fill="#FAFAFA"/>
<path d="M276.601 657.263C278.092 657.066 279.282 657.061 280.773 657.257C280.499 658.541 280.729 658.239 280.045 659.113C276.011 664.258 271.993 669.436 268.518 674.985C253.829 698.443 248.795 731.527 254.963 758.413C249.747 755.974 245.108 752.768 240.679 749.111C233.214 740.365 227.81 731.048 226.221 719.504C226.106 718.615 226.015 717.723 225.945 716.829C225.874 715.935 225.826 715.04 225.799 714.144C225.773 713.247 225.768 712.351 225.785 711.454C225.801 710.558 225.84 709.663 225.901 708.768C225.962 707.873 226.045 706.981 226.15 706.09C226.254 705.2 226.38 704.312 226.527 703.427C226.675 702.543 226.845 701.663 227.035 700.787C227.226 699.911 227.438 699.04 227.672 698.174C227.905 697.308 228.159 696.449 228.434 695.595C228.709 694.741 229.005 693.895 229.322 693.057C229.639 692.217 229.975 691.386 230.332 690.563C230.689 689.74 231.067 688.927 231.463 688.123C231.86 687.319 232.277 686.525 232.712 685.74C233.148 684.956 233.602 684.183 234.076 683.422C234.549 682.66 235.041 681.91 235.551 681.172C236.061 680.434 236.588 679.709 237.134 678.997C246.902 666.164 260.824 659.392 276.601 657.263Z" fill="#FAFAFA"/>
<path d="M331.106 418.984C335.553 419.07 339.283 419.694 343.309 421.674C352.332 426.108 359.807 434.891 363.007 444.404C364.717 449.487 365.392 455.601 362.829 460.531C360.595 464.829 357.221 466.942 352.783 468.486C348.262 468.621 344.709 468.227 340.555 466.285C331.206 461.912 323.59 452.933 320.146 443.262C318.322 438.143 317.201 432.144 319.785 427.074C322.159 422.415 326.318 420.399 331.106 418.984Z" fill="#FAFAFA"/>
</svg>
